<?xml version="1.0" encoding="UTF-8"?>
<svg version="1.1" viewBox="0 0 1600 1600" width="1280" height="1280" xmlns="http://www.w3.org/2000/svg">
<path transform="translate(0)" d="m0 0h1600v1600h-1600v-1600z" fill="#FDF4D6"/>
<path transform="translate(719 351)" d="m0 0c0.7-0 1.4-0 2.12-0.01 2.36 0 4.71 0.01 7.06 0.01h5.06c4.58-0.01 9.17 0 13.8 0.01 4.79 0.01 9.59 0.01 14.4 0.01 8.05 0 16.1 0.01 24.2 0.02 9.31 0.02 18.6 0.02 27.9 0.02 8.95 0 17.9 0.01 26.9 0.01 3.81 0.01 7.62 0.01 11.4 0.01 4.49 0 8.98 0.01 13.5 0.02h4.94c2.25 0 4.5 0.01 6.75 0.01 1.26 0.01 2.52 0.01 3.81 0.01 3.28 0.12 6.24 0.29 9.42 1.13 1.56 2.66 2.64 4.9 3.69 7.75 0.56 1.43 1.13 2.86 1.7 4.29 0.26 0.69 0.53 1.37 0.81 2.07 1.04 2.45 2.4 4.64 3.8 6.89 0.67 1.81 1.34 3.62 1.99 5.43 3.39 8.62 7.64 17 11.9 25.2 0.87 1.8 1.69 3.63 2.47 5.47 1.76 4.12 3.63 8.18 5.51 12.2 0.37 0.79 0.73 1.58 1.11 2.4 0.78 1.68 1.56 3.37 2.34 5.05 2.04 4.4 4.07 8.81 6.1 13.2 0.6 1.3 0.6 1.3 1.22 2.62 13.6 29.4 13.6 29.4 19 41.8 3.79 8.72 7.87 17.3 12 25.9 0.44 0.93 0.89 1.87 1.35 2.83 0.87 1.83 1.75 3.66 2.63 5.49 2.26 4.73 4.42 9.48 6.46 14.3 0.76 1.71 1.53 3.42 2.31 5.12 0.64 1.41 0.64 1.41 1.3 2.85 1.48 3.22 2.96 6.44 4.45 9.65 1.64 3.53 3.25 7.07 4.81 10.6 1.9 4.28 3.88 8.51 5.88 12.8 0.34 0.72 0.68 1.45 1.04 2.2 1.78 3.78 3.57 7.55 5.37 11.3 3.11 6.57 6.16 13.1 8.78 19.9 1.43 3.52 3.02 6.97 4.62 10.4 0.3 0.63 0.59 1.27 0.89 1.92 1.67 3.56 3.53 6.9 5.55 10.3 0.58 1.36 1.12 2.73 1.62 4.12 2.01 5.17 4.36 10.1 6.75 15.1 3.24 6.74 6.29 13.5 9.19 20.4 1.72 4.01 3.56 7.95 5.41 11.9 3.05 6.47 6.04 13 9.03 19.4 3.25 7.05 6.51 14.1 9.81 21.1 2.3 4.9 4.49 9.84 6.63 14.8 2.72 6.31 5.68 12.5 8.81 18.6 2.09 4.1 3.96 8.24 5.75 12.5 0.87 1.88 1.74 3.75 2.62 5.62 2.76 5.93 5.33 11.9 7.88 17.9 2.77 6.52 5.65 12.9 8.9 19.2 2.61 5.27 4.97 10.6 7.35 16 1.97 4.42 4.01 8.77 6.2 13.1 2.16 4.35 4.15 8.78 6.17 13.2 0.48 1.03 0.95 2.07 1.44 3.13 3.89 8.5 7.63 17.1 11.3 25.7 0.38 0.91 0.77 1.82 1.17 2.75 0.34 0.8 0.68 1.61 1.03 2.43 0.92 2.12 0.92 2.12 2.97 3.96 0.69 1.71 1.33 3.44 1.94 5.18 2.34 6.24 5.09 12.2 8 18.2 5.21 10.7 10.2 21.6 15 32.4 3.93 8.77 7.96 17.5 12 26.2 14.3 30.4 14.3 30.4 19.5 42.6 2.71 6.21 5.61 12.3 8.5 18.4 1.27 2.7 2.54 5.41 3.81 8.12 0.29 0.62 0.58 1.23 0.88 1.87 1.55 3.3 2.98 6.61 4.31 10 1.98 4.76 4.18 9.38 6.53 14 3.93 7.7 7.63 15.5 11.2 23.4 0.82 1.81 1.66 3.62 2.5 5.42 0.75 1.68 0.75 1.68 1.52 3.4 0.46 1 0.92 2 1.39 3.04 0.96 3.11 0.83 4.71-0.14 7.79-1.2 2.07-1.2 2.07-2.69 4.12-2.4 3.44-4.47 6.92-6.44 10.6-2.01 3.77-4.17 6.93-6.87 10.2-1.3 2.34-2.54 4.71-3.75 7.11-1.25 1.89-1.25 1.89-4.25 2.89-0.15 1.08-0.15 1.08-0.31 2.18-0.76 3.1-1.85 5.23-3.69 7.82h-2c-0.25 1.05-0.5 2.1-0.75 3.18-0.87 3.72-2.86 5.88-5.25 8.82-1.91 2.79-3.74 5.64-5.56 8.5-0.72 1.12-0.72 1.12-1.46 2.26-2.39 3.71-4.73 7.44-6.98 11.2-4.97 8.17-10 16.2-15.5 24.1-2.82 4.16-5.43 8.37-7.92 12.7-2.44 4.21-4.98 8.31-7.75 12.3-0.62 0.91-1.24 1.81-1.88 2.74-2.81 2.94-5.46 3-9.43 3.2-1.29 0.01-1.29 0.01-2.61 0.01-1 0-2.01 0-3.04 0.01-1.09 0-2.19 0-3.32-0.01-1.17 0.01-2.34 0.01-3.55 0.01-3.27 0.01-6.53 0.01-9.8 0.01-3.55 0-7.1 0.01-10.6 0.01-7.05 0.02-14.1 0.02-21.1 0.03-8.44 0-16.9 0.01-25.3 0.02-20.4 0.03-40.8 0.04-61.2 0.06-6.75 0-13.5 0-20.2 0.01-35.9 0.02-71.7 0.05-108 0.06-8.31 0-16.6 0-24.9 0.01h-3.13c-33.5 0.01-67 0.04-100 0.08-34.4 0.05-68.8 0.07-103 0.08h-14.6-2.9c-15.4 0-30.8 0.02-46.2 0.05-15.5 0.03-31 0.04-46.4 0.02-9.2 0-18.4 0.01-27.6 0.03-6.14 0.02-12.3 0.02-18.4 0-3.51 0-7.01 0-10.5 0.02-3.77 0.02-7.53 0-11.3-0.01-1.65 0.01-1.65 0.01-3.32 0.03-7.35-0.08-7.35-0.08-11.2-3.08-0.62-0.85-1.23-1.7-1.87-2.57-0.45-0.59-0.91-1.18-1.37-1.79-0.35-0.54-0.7-1.08-1.06-1.63-0.6-0.92-0.6-0.92-1.21-1.85-0.41-0.63-0.82-1.27-1.24-1.92-0.87-1.34-1.74-2.67-2.61-4.01-0.43-0.65-0.85-1.3-1.29-1.96-1.67-2.52-3.44-4.96-5.22-7.41-2.38-3.36-4.04-6.37-5-10.4h-2c-1.16-1.44-1.16-1.44-2.5-3.57-0.78-1.21-0.78-1.21-1.58-2.45-0.64-0.99-1.27-1.97-1.92-2.98-2.15-3.24-4.32-6.46-6.48-9.68-6.52-9.76-6.52-9.76-6.52-12.3h-2c-1.47-1.83-1.47-1.83-3.06-4.25-0.53-0.79-1.06-1.58-1.6-2.39-1.23-2.18-1.89-3.92-2.34-6.36h-2c-0.49-0.93-0.49-0.93-0.99-1.87-0.65-1.21-0.65-1.21-1.32-2.45-0.65-1.2-0.65-1.2-1.3-2.42-1.31-2.13-2.63-3.52-4.39-5.26-1.12-1.67-2.2-3.36-3.25-5.07-2.85-4.54-5.83-8.95-8.93-13.3-2.71-3.87-5.29-7.83-7.89-11.8-1.71-2.51-3.49-4.89-5.37-7.27-2.12-2.81-3.66-4.9-3.56-8.56 0.93-1.71 1.95-3.37 3-5 0.64-1.51 1.25-3.04 1.84-4.57 2.01-5.11 4.2-10.1 6.47-15.1 0.59-1.29 0.59-1.29 1.18-2.61 2.69-5.94 5.43-11.9 8.2-17.8 1.46-3.12 2.88-6.24 4.25-9.39 2.21-5.06 4.74-9.97 7.24-14.9 1.78-3.51 3.38-7.01 4.82-10.7 1.03-2.24 2.07-4.47 3.12-6.69 2.71-5.74 5.32-11.5 7.88-17.3 2.69-6.1 5.45-12.2 8.28-18.2 2.47-5.25 4.85-10.5 7.22-15.8 4.32-9.64 8.74-19.2 13.3-28.8 4.22-8.87 8.25-17.8 12.2-26.8 3.56-8.08 7.22-16.1 11.3-23.9 2.76-5.41 5.08-11 7.31-16.6 1.58-3.97 3.32-7.79 5.26-11.6 2.61-5.23 5.03-10.6 7.48-15.8 0.29-0.62 0.58-1.24 0.87-1.88 3.67-7.89 7.27-15.8 10.7-23.8 1.57-3.64 3.25-7.18 5.08-10.7 2.03-4.21 3.77-8.55 5.56-12.9 1.32-2.93 2.81-5.53 4.47-8.27 0.78-1.78 1.53-3.57 2.25-5.38 3.85-9.42 8.2-18.6 12.8-27.7 2.78-5.62 5.28-11.4 7.8-17.1 3.13-7.12 6.29-14.2 9.84-21.1 2.76-5.41 4.96-10.9 7.06-16.6 1.62-4.02 3.69-7.69 5.84-11.5 1.82-3.4 3.18-6.9 4.55-10.5 1.03-2.55 2.44-4.77 3.86-7.13 0.58-1.43 1.14-2.86 1.69-4.3 2.37-5.99 5.1-11.8 7.85-17.6 5.92-12.5 11.7-25.1 17.3-37.8 0.51-1.13 1.01-2.27 1.54-3.44 0.44-0.99 0.87-1.98 1.33-3.01 1.37-2.99 2.84-5.92 4.31-8.86 0.67-1.67 1.34-3.33 2-5 0.97-2.11 1.95-4.22 2.94-6.32 3.23-6.87 6.4-13.8 9.56-20.7 5.78-12.6 11.7-25.2 17.6-37.8 2.06-4.37 4.09-8.76 6.11-13.2 1.74-3.79 3.54-7.54 5.43-11.2 1.57-3.08 2.95-6.15 4.19-9.38 2.72-6.99 6.05-13.7 9.27-20.5 1.16-2.47 2.3-4.96 3.42-7.45 1.44-3.19 2.9-6.37 4.41-9.53 0.34-0.73 0.69-1.45 1.04-2.2 0.67-1.41 1.34-2.82 2.02-4.23 1.92-4.04 3.69-8.1 5.39-12.2 3.25-7.89 6.9-15.6 10.5-23.3 0.52-1.11 1.03-2.22 1.56-3.36 0.47-0.99 0.93-1.98 1.41-3 0.96-2.24 1.65-4.28 2.14-6.65h2c0.27-1.02 0.53-2.03 0.8-3.08 1.09-3.77 2.62-7.19 4.32-10.7 2.41-5.03 4.74-10.1 6.98-15.2 9.72-22.2 9.72-22.2 19.8-22.2z" fill="#F97F2A"/>
<path transform="translate(801,603)" d="m0 0c1.81 0.12 1.81 0.12 4 1 1.55 2.59 1.55 2.59 3.02 6.02 0.27 0.61 0.54 1.23 0.82 1.86 0.86 1.97 1.7 3.95 2.54 5.93 1.1 2.57 2.22 5.14 3.33 7.71 0.41 0.95 0.41 0.95 0.83 1.91 2.2 5.08 4.61 10 7.14 14.9 1.79 3.57 3.41 7.21 5.04 10.9 1.35 2.92 2.81 5.78 4.28 8.65 2.04 4.02 3.79 8.04 5.35 12.3 2.41 6.34 5.14 12.5 8.03 18.6 1.05 2.26 2.1 4.51 3.15 6.77 0.55 1.2 1.11 2.39 1.68 3.62 3.29 7.08 6.5 14.2 9.73 21.3 0.63 1.39 1.26 2.78 1.9 4.18 0.6 1.33 1.21 2.67 1.81 4 0.29 0.64 0.58 1.28 0.89 1.95 1.28 2.84 2.57 5.68 3.86 8.52 2.25 4.99 4.56 9.94 6.93 14.9 3.14 6.5 6.12 13 8.73 19.7 1.96 5.06 4.16 9.88 6.64 14.7 4.26 8.41 8.18 17 12 25.5 0.65 1.44 1.3 2.88 1.96 4.32 2.85 6.31 5.69 12.6 8.49 19 1.13 2.53 2.31 5.03 3.49 7.54 3.16 6.82 6.12 13.7 9.06 20.6 3.47 8.16 7 16.2 11.1 24.1 2.84 5.57 5.37 11.2 7.69 17 2.17 5.43 4.51 10.7 7.19 15.9 3.52 6.87 6.7 13.9 9.81 20.9 4.85 11 9.8 22 14.8 32.9 0.33 0.73 0.67 1.45 1.01 2.2 4.01 8.78 8.06 17.5 12.2 26.3 2.71 5.81 5.39 11.6 7.91 17.5 1.52 3.56 3.1 7.09 4.69 10.6 0.57 1.28 1.14 2.55 1.72 3.83l2.67 5.94c0.87 1.93 1.74 3.86 2.61 5.79 0.77 1.72 0.77 1.72 1.56 3.47 3.37 7.66 3.37 7.66 3.37 11.1h-422c-1-2-1-2-0.31-4.1 0.38-0.86 0.76-1.72 1.15-2.6 0.42-0.95 0.84-1.91 1.27-2.89 0.46-1.02 0.92-2.05 1.39-3.1 0.69-1.56 0.69-1.56 1.4-3.16 3.08-6.95 6.26-13.8 9.51-20.7 2.17-4.68 4.18-9.41 6.2-14.2 3.09-7.25 6.41-14.4 9.95-21.4 3.5-6.95 6.67-13.9 9.5-21.1 3.2-8.17 6.9-15.9 10.9-23.7 2.12-4.09 4.09-8.14 5.75-12.4 2.73-6.99 6.04-13.7 9.26-20.5 4.61-9.72 9.12-19.5 13.2-29.5 4.16-10 8.87-19.9 13.8-29.6 1.88-3.75 3.42-7.59 4.95-11.5 1.67-4.2 3.53-8.31 5.4-12.4 0.39-0.86 0.78-1.73 1.18-2.63 2.6-5.72 5.32-11.4 8.17-17 1.9-3.78 3.59-7.65 5.27-11.5 0.62-1.4 1.25-2.79 1.88-4.19 1.74-3.92 3.43-7.86 5.12-11.8 6.64-15.5 6.64-15.5 10-21 0.67-1.66 1.34-3.33 2-5 1.24-2.77 2.51-5.52 3.78-8.28 0.76-1.69 1.49-3.4 2.17-5.13 1.32-3.25 2.8-6.42 4.3-9.59 0.63-1.34 1.25-2.67 1.88-4.01 0.31-0.67 0.63-1.33 0.95-2.02 3.72-7.95 7.38-15.9 10.9-24 1-2.26 2.01-4.52 3.01-6.77 0.63-1.42 1.26-2.85 1.88-4.27 3.82-8.66 7.87-17.2 11.9-25.8 3.39-7.2 6.62-14.4 9.73-21.8 3.04-7.06 6.25-14.1 9.72-20.9 1.69-3.25 1.69-3.25 2.64-5.74 1.43-3.54 3.05-6.99 4.67-10.4 0.32-0.67 0.64-1.35 0.96-2.05 2.29-4.89 2.29-4.89 3.48-7.26z" fill="#FECE32"/>
<path transform="translate(712,351)" d="m0 0h166v2c0.99 0.33 1.98 0.66 3 1-1.07 0.2-1.07 0.2-2.15 0.4-1.38 0.27-1.38 0.27-2.79 0.54-0.91 0.17-1.83 0.35-2.77 0.52-2.24 0.32-2.24 0.32-3.29 1.54-2.76 0.25-5.5 0.43-8.27 0.56-0.88 0.04-1.77 0.08-2.68 0.13-11.3 0.48-22.6 0.42-33.8 0.39-4.04-0.02-8.08-0.02-12.1-0.03-8.55-0.01-17.1-0.03-25.6-0.05-9.3-0.02-18.6-0.04-27.9-0.05-3.36-0.01-6.72-0.01-10.1-0.03-3.72-0.01-7.44-0.01-11.2-0.02-1.1 0-2.21-0.01-3.35-0.01h-3.06c-0.88-0.01-1.76-0.01-2.67-0.01-2.4 0.03-2.4 0.03-5.23 1.12-4.24-0.39-7.96-0.99-11.1-4-0.94-2-0.94-2-0.94-4z" fill="#F9802B"/>
<path transform="translate(990,1202)" d="m0 0c0.95 0.11 0.95 0.11 1.92 0.21 9.19 0.91 18.3 0.94 27.6 0.92 2.67 0 5.35 0 8.03 0.01 9.1 0 18.2-0.16 27.2-0.88 3.13-0.23 5.23-0.27 8.25 0.74 1.73-0.08 3.46-0.24 5.19-0.44 0.9-0.1 1.8-0.2 2.73-0.31 0.69-0.08 1.37-0.16 2.08-0.25v2c1.11-0.16 2.23-0.33 3.38-0.5 3.62-0.5 3.62-0.5 5.62-0.5 0.49 1.48 0.49 1.48 1 3h-101l1-2h7v-2z" fill="#F9802B"/>
<path transform="translate(518,1202)" d="m0 0 2 1c2-0.33 4-0.67 6-1 4.21-0.14 8.18-0 12.4 0.5 6.73 0.69 13.4 0.65 20.2 0.62 1.9 0.01 1.9 0.01 3.83 0.02 5.32-0.01 10.5-0.05 15.8-0.71 3.77-0.43 5.51-0.23 8.79 1.57l-1 2c-8.61 0.16-17.2 0.3-25.8 0.44l-12 0.21c-3.87 0.07-7.74 0.13-11.6 0.19-1.46 0.03-2.93 0.05-4.39 0.08-9.79 0.19-19.4-0.12-29.2-0.92v-2c1.94-0.2 3.87-0.38 5.81-0.56 1.08-0.11 2.16-0.21 3.27-0.32 2.92-0.12 2.92-0.12 5.92 0.88v-2z" fill="#F9802B"/>
<path transform="translate(945 1203)" d="m0 0h2.08 4.32c2.19 0.01 4.38 0 6.57-0h4.22 3.83c3.26 0.12 6.31 0.51 9.51 1.13l-1 2h-44v-2c4.87-0.79 9.54-1.13 14.5-1.13z" fill="#F9802B"/>
<path transform="translate(589 1e3)" d="m0 0h5c-1.88 5.75-1.88 5.75-3 8h-2l-1 4c-1.98 0.33-3.96 0.66-6 1l-1-6c4.75-3 4.75-3 7-3l1-4z" fill="#FA7F28"/>
<path transform="translate(579,1022)" d="m0 0 4 5h-2v5h-7l-2-6c4.75-2.88 4.75-2.88 7-4z" fill="#FA7F28"/>
<path transform="translate(710,736)" d="m0 0 3 2c-0.2 0.54-0.41 1.09-0.62 1.64-0.27 0.72-0.54 1.44-0.82 2.17-0.26 0.71-0.53 1.42-0.81 2.15-0.61 1.67-1.19 3.35-1.75 5.04l-5 1c-0.25-7.62-0.25-7.62 2-11h2v-2l2-1z" fill="#FA7F28"/>
<path transform="translate(1029,669)" d="m0 0h2c0.67 1.43 1.34 2.87 2 4.31 0.56 1.2 0.56 1.2 1.12 2.43 0.88 2.26 0.88 2.26 0.88 5.26h2v2c-0.99 0.5-0.99 0.5-2 1-0.66 3.03-0.66 3.03-1 6-1.52-1.14-1.52-1.14-3-3-0.07-2.7-0.07-2.7 0.31-5.69 0.18-1.49 0.18-1.49 0.37-3.01 0.1-0.76 0.21-1.52 0.32-2.3-0.99 0.33-1.98 0.66-3 1v-8z" fill="#FA7F28"/>
<path transform="translate(573,1040)" d="m0 0 2 1c0.41 2.32 0.74 4.66 1 7-4.46 0.49-4.46 0.49-9 1v3l-2-1c0.38-2.78 0.67-4.59 2.44-6.81 1.56-1.19 1.56-1.19 3.56-1.19v-2l2-1z" fill="#FA7F28"/>
<path transform="translate(978,936)" d="m0 0c0.99 0.33 1.98 0.66 3 1 0.63 10.2 0.63 10.2-2 13.7-0.66 0.43-1.32 0.86-2 1.31-1.53-4.08-0.63-7.79 0-12l-2-1 3-3z" fill="#F9802B"/>
<path transform="translate(702,1204)" d="m0 0 1 2h-29l1-2c8.41-1.98 18.6-1.96 27 0z" fill="#F9802B"/>
<path transform="translate(630,912)" d="m0 0 2 2c-0.99 3.63-1.98 7.26-3 11l-5 1v-8h2v-2c1.29-1.37 2.62-2.71 4-4z" fill="#FA7F28"/>
<path transform="translate(938,848)" d="m0 0c0.99 0.33 1.98 0.66 3 1 0.03 1.6 0.05 3.21 0.06 4.81 0.01 0.9 0.03 1.79 0.04 2.71-0.1 2.48-0.1 2.48-1.1 5.48h-2l-1 2c-0.22-2.1-0.43-4.21-0.62-6.31-0.12-1.17-0.24-2.35-0.36-3.55-0.02-3.14-0.02-3.14 1.98-6.14z" fill="#F9802B"/>
<path transform="translate(713,426)" d="m0 0c1.12 4.75 1.12 4.75 0 7h-3v2c-0.99 0.33-1.98 0.66-3 1v-10c3-1 3-1 6 0z" fill="#FA7F28"/>
<path transform="translate(1165,965)" d="m0 0c3.4 2.26 3.75 3.29 5.12 7 0.34 0.89 0.67 1.77 1.01 2.69 0.29 0.76 0.58 1.52 0.87 2.31l1 2-4 2c-1.06-1.81-1.06-1.81-2-4l1-3-3-2c-0.19-3.62-0.19-3.62 0-7z" fill="#FA7F28"/>
<path transform="translate(749,649)" d="m0 0h2c-0.91 7.86-0.91 7.86-3 11-3 2-3 2-6 2v-2h2v-5h2v-2h2l1-4z" fill="#FA7F28"/>
<path transform="translate(841,638)" d="m0 0c2.11 1.71 2.94 2.52 3.29 5.26-0.09 2.25-0.19 4.49-0.29 6.74l-7-6c2-4 2-4 4-6z" fill="#F9802B"/>
<path transform="translate(653,861)" d="m0 0c2 2 2 2 2.12 5.62-0.04 1.12-0.08 2.23-0.12 3.38l2 1c-3.75 2-3.75 2-6 2v-2h3v-2c-0.99 0.33-1.98 0.66-3 1-0.69-2.81-0.69-2.81-1-6 1.44-1.88 1.44-1.88 3-3z" fill="#FA7F28"/>
<path transform="translate(1053,833)" d="m0 0h6c-0.19 0.56-0.37 1.11-0.56 1.69-0.52 2.71-0.1 4.65 0.56 7.31l-4 1v-2h-3l1-8z" fill="#FA7F28"/>
<path transform="translate(638,1204)" d="m0 0 1 2c-3.12 0.06-6.25 0.09-9.38 0.12-0.88 0.02-1.77 0.04-2.69 0.06-0.85 0-1.7 0.01-2.58 0.02-1.18 0.01-1.18 0.01-2.38 0.03-1.97-0.23-1.97-0.23-3.97-2.23 5.44-2.72 14.2-1.27 20 0z" fill="#F9802B"/>
<path transform="translate(969,1072)" d="m0 0c3.85-0.03 7.71-0.05 11.6-0.06 1.09-0.01 2.17-0.02 3.29-0.03 5.5-0.01 10.7 0.1 16.2 1.09-3.47 2.15-6.05 2.17-10.1 1.98-1.74-0.08-1.74-0.08-3.51-0.16-1.21-0.06-2.42-0.13-3.66-0.2-1.83-0.08-1.83-0.08-3.7-0.17-3.02-0.14-6.03-0.29-9.05-0.45l-1-2z" fill="#F9802B"/>
<path transform="translate(1158,950)" d="m0 0c1.48 0.99 1.48 0.99 3 2 0.19 2.62 0.19 2.62 0 5h2l2 6-4 2-2-4 3-3h-2v-3c-0.99-0.33-1.98-0.66-3-1l1-4z" fill="#FA7F28"/>
<path transform="translate(612,949)" d="m0 0c3.15 3.42 3.56 6.44 4 11l-4 1-1-2h3l-4-1c-0.25-5.62-0.25-5.62 2-9z" fill="#FA7F28"/>
<path transform="translate(638,892)" d="m0 0c2 2 2 2 2.2 4.38-0.03 0.91-0.05 1.81-0.08 2.74-0.01 0.92-0.03 1.83-0.05 2.76-0.02 0.7-0.05 1.4-0.07 2.12l-4 1 1-3h-2c0.61-3.56 1.58-6.68 3-10z" fill="#FA7F28"/>
<path transform="translate(702,754)" d="m0 0c1.35 4.05 0.62 6.79 0 11h-4v-3l-2-1c0.99-0.33 1.98-0.66 3-1 0.73-2.02 0.73-2.02 1-4h2v-2z" fill="#FA7F28"/>
<path transform="translate(740,666)" d="m0 0h2c-0.14 1.46-0.29 2.92-0.44 4.38-0.08 0.81-0.16 1.62-0.24 2.46-0.32 2.16-0.32 2.16-1.32 4.16h-4c-0.36-3.85-0.28-5.58 1.88-8.88l2.12-2.12z" fill="#FA7F28"/>
<path transform="translate(622,931)" d="m0 0c0 3.61-0.96 6.56-2 10-0.99-0.33-1.98-0.66-3-1l-1-5h2l1-3c0.99-0.33 1.98-0.66 3-1z" fill="#FA7F28"/>
<path transform="translate(672,824)" d="m0 0 1 4h-2v5c-0.99 0.33-1.98 0.66-3 1l-2-2 2-5h2v-2l2-1z" fill="#FA7F28"/>
<path transform="translate(934,822)" d="m0 0c1.67-0.04 3.33-0.04 5 0 1 1 1 1 1.25 3.38-0.25 2.62-0.25 2.62-1.75 4.43-0.5 0.39-0.99 0.79-1.5 1.19l-1-5h-2v-4z" fill="#F9802B"/>
<path transform="translate(884,356)" d="m0 0c0.99 0.33 1.98 0.66 3 1l-2 7h-3l-2-3 4-5z" fill="#FDCB31"/>
<path transform="translate(493,896)" d="m0 0 1 2c0.99 0.33 1.98 0.66 3 1l-2 6h-3c-0.62-3.38-0.62-3.38-1-7l2-2z" fill="#FA7F28"/>
<path transform="translate(882,451)" d="m0 0c0.14 0.6 0.29 1.2 0.44 1.81 0.45 1.75 0.99 3.48 1.56 5.19l-4 2c-0.99-1.32-1.98-2.64-3-4 2-3 2-3 5-5z" fill="#FA7F28"/>
<path transform="translate(570,1059)" d="m0 0c2 3 2 3 1.62 5.69-0.2 0.76-0.41 1.52-0.62 2.31h-5l-1-4 3-2 2-2z" fill="#FA7F28"/>
<path transform="translate(993,977)" d="m0 0 1 2h2l1 6-4 1c-1.4-2.3-2.07-3.48-1.69-6.19 0.69-1.81 0.69-1.81 1.69-2.81z" fill="#F9802B"/>
<path transform="translate(526,826)" d="m0 0 2 1c-0.25 2.88-0.25 2.88-1 6-2.06 1.38-2.06 1.38-4 2-0.19-3.38-0.19-3.38 0-7l3-2z" fill="#FA7F28"/>
<path transform="translate(765,1204)" d="m0 0v1c-6.07 0.77-11.9 1.1-18 1v-2c2.98 0.05 2.98 0.05 5.96 0.1 9.84-0.47 9.84-0.47 12-0.1z" fill="#F9802B"/>
<path transform="translate(1017,997)" d="m0 0 4 2-2 6h-2c-1.12-2.31-1.12-2.31-2-5l2-3z" fill="#F9802B"/>
<path transform="translate(1197,1033)" d="m0 0c2.52 3.12 4.27 6.38 6 10h-5c-0.12-1.11-0.25-2.23-0.38-3.38-0.27-3.65-0.27-3.65-2.62-5.62l2-1z" fill="#FA7F28"/>
<path transform="translate(718,716)" d="m0 0h1l1 12c-0.99-0.33-1.98-0.66-3-1l1-2c-0.99-0.33-1.98-0.66-3-1 1.88-5.75 1.88-5.75 3-8z" fill="#FA7F28"/>
<path transform="translate(857,646)" d="m0 0 4 2c-0.99 2.31-1.98 4.62-3 7-1.55-2.32-2.8-4.51-4-7l3-2z" fill="#F9802B"/>
<path transform="translate(905,756)" d="m0 0 2 1-1 10-2-4-2-1v-3h3v-3z" fill="#F9802B"/>
<path transform="translate(572,722)" d="m0 0h3c0.19 2.88 0.19 2.88 0 6l-3 2c-1-1-1-1-1.12-4 0.12-3 0.12-3 1.12-4z" fill="#FA7F28"/>
<path transform="translate(821,632)" d="m0 0c0.99 0.33 1.98 0.66 3 1l2 10c-2-1-2-1-2.94-2.94-1.01-2.38-1.01-2.38-4.06-4.06l2-4z" fill="#F9802B"/>
<path transform="translate(976,910)" d="m0 0c1.98 0.5 1.98 0.5 4 1 0.19 2.38 0.19 2.38 0 5l-3 2c-0.73-1.98-1.39-3.98-2-6l1-2z" fill="#F9802B"/>
<path transform="translate(773,599)" d="m0 0 4 1v5c-1.98-0.66-3.96-1.32-6-2v-2h2v-2z" fill="#FA7F28"/>
<path transform="translate(881,417)" d="m0 0 4 2-1 6c-0.99 0.33-1.98 0.66-3 1-1.11-3.33-0.84-5.62 0-9z" fill="#FA7F28"/>
</svg>
