<?xml version="1.0" standalone="no"?>
<!DOCTYPE svg PUBLIC "-//W3C//DTD SVG 20010904//EN"
 "http://www.w3.org/TR/2001/REC-SVG-20010904/DTD/svg10.dtd">
<svg version="1.0" xmlns="http://www.w3.org/2000/svg"
 width="1080.000000pt" height="205.000000pt" viewBox="0 0 1080.000000 205.000000"
 preserveAspectRatio="xMidYMid meet">

<g transform="translate(0.000000,205.000000) scale(0.100000,-0.100000)"
fill="#000000" stroke="none">
<path d="M600 2033 c-136 -23 -292 -115 -373 -221 -187 -246 -167 -584 47
-797 72 -71 170 -132 251 -154 22 -6 1116 -198 2430 -427 2637 -459 2423 -428
2635 -384 58 12 1118 192 2355 400 1238 209 2277 387 2310 396 209 57 375 223
430 430 19 70 21 215 4 287 -49 211 -222 389 -430 443 -140 37 -101 43 -2209
-315 -1075 -182 -2121 -359 -2325 -392 l-370 -62 -2304 402 c-2212 385 -2362
409 -2451 394z"/>
</g>
</svg>
